<svg width="34" height="32" viewBox="0 0 34 32" fill="none" xmlns="http://www.w3.org/2000/svg">
<path d="M2 2H11C12.5913 2 14.1174 2.65555 15.2426 3.82245C16.3679 4.98934 17 6.57199 17 8.22222V30C17 28.7623 16.5259 27.5753 15.682 26.7002C14.8381 25.825 13.6935 25.3333 12.5 25.3333H2V2Z" stroke="white" stroke-width="3" stroke-linecap="round" stroke-linejoin="round"/>
<path d="M32 2H23C21.4087 2 19.8826 2.65555 18.7574 3.82245C17.6321 4.98934 17 6.57199 17 8.22222V30C17 28.7623 17.4741 27.5753 18.318 26.7002C19.1619 25.825 20.3065 25.3333 21.5 25.3333H32V2Z" stroke="white" stroke-width="3" stroke-linecap="round" stroke-linejoin="round"/>
</svg>
